<svg xmlns="http://www.w3.org/2000/svg" viewBox="0 0 100 100">
  <defs>
    <mask id="lens-clear" maskUnits="userSpaceOnUse" x="0" y="0" width="100" height="100">
      <rect width="100" height="100" fill="white"/>
      <circle cx="50" cy="28" r="18" fill="black"/>
    </mask>
  </defs>
  <g transform="translate(0 8)" fill="none" stroke="#B8C8E5" stroke-width="4" stroke-linecap="round" stroke-linejoin="round">
    <g mask="url(#lens-clear)">
      <path d="M50 30 C40 22 24 20 8 24 L8 74 C24 70 40 72 50 80 Z"/>
      <path d="M50 30 C60 22 76 20 92 24 L92 74 C76 70 60 72 50 80 Z"/>
      <path d="M50 30 V80"/>
      <path d="M20 40 H36 M20 50 H34 M20 60 H30 M64 40 H80 M66 50 H80 M70 60 H80" stroke="#5A78B5" stroke-width="3"/>
    </g>
    <circle cx="50" cy="28" r="18" stroke-width="5"/>
    <path d="M63 41 L78 56" stroke-width="7"/>
    <path d="M42 22 C46 17 54 17 58 22" stroke="#5A78B5" stroke-width="3"/>
  </g>
</svg>
